<svg width="17" height="14" viewBox="0 0 17 14" fill="none" xmlns="http://www.w3.org/2000/svg">
<path d="M8.04598 9.09239L2.94404 13.5435C2.6215 13.8225 2.211 13.962 1.71252 13.962C1.21405 13.962 0.803548 13.8225 0.481009 13.5435C0.160336 13.2645 0 12.9094 0 12.4783C0 12.0471 0.160336 11.692 0.481009 11.413L5.5972 6.96196L0.481009 2.56139C0.160336 2.28076 0 1.92361 0 1.48993C0 1.05624 0.160336 0.699087 0.481009 0.418478C0.801682 0.139493 1.20981 0 1.7054 0C2.20098 0 2.60911 0.139493 2.92979 0.418478L8.04598 4.86957L13.1041 0.418478C13.4267 0.139493 13.8372 0 14.3357 0C14.8342 0 15.2447 0.139493 15.5672 0.418478C15.917 0.722826 16.092 1.08424 16.092 1.50272C16.092 1.9212 15.917 2.26993 15.5672 2.54891L10.451 6.96196L15.5672 11.4006C15.8879 11.6813 16.0482 12.0384 16.0482 12.4721C16.0482 12.9057 15.8879 13.2629 15.5672 13.5435C15.2174 13.8478 14.802 14 14.321 14C13.84 14 13.4391 13.8478 13.1184 13.5435L8.04598 9.09239Z" fill="#979797"/>
</svg>
