<svg width="24" height="24" viewBox="0 0 24 24" fill="none" xmlns="http://www.w3.org/2000/svg">
<g id="git" clip-path="url(#clip0_2_110)">
<path id="Vector" d="M18.2892 4.39592C17.8151 3.90989 17.2396 3.6668 16.5624 3.6668C15.8856 3.6668 15.31 3.90975 14.836 4.39592C14.3622 4.88195 14.1253 5.47215 14.1253 6.16675C14.1253 6.61812 14.235 7.03698 14.4551 7.42322C14.6751 7.80951 14.971 8.11125 15.3437 8.32816C15.3437 8.77953 15.3079 9.17681 15.2361 9.51964C15.164 9.86247 15.0456 10.164 14.8806 10.4246C14.7152 10.685 14.5442 10.9062 14.3663 11.0886C14.1884 11.271 13.9388 11.4423 13.6172 11.603C13.2957 11.7636 12.9971 11.898 12.7221 12.0066C12.4472 12.115 12.0768 12.243 11.6113 12.3906C10.7648 12.6598 10.1133 12.907 9.65621 13.1329V6.66131C10.0286 6.44445 10.3248 6.14276 10.5449 5.75647C10.7648 5.37018 10.8748 4.95128 10.8748 4.4999C10.8748 3.80554 10.638 3.2152 10.164 2.72917C9.69013 2.24318 9.1147 2 8.43753 2C7.76032 2 7.18488 2.24299 6.71088 2.72917C6.23705 3.2152 6 3.80554 6 4.4999C6 4.95128 6.11001 5.37018 6.32998 5.75647C6.55 6.14276 6.84619 6.44445 7.21863 6.66131V17.3387C6.84619 17.5555 6.55 17.8575 6.32998 18.2436C6.11001 18.6301 6 19.049 6 19.5002C6 20.1946 6.23687 20.7848 6.71088 21.2708C7.18488 21.7568 7.76045 22 8.43753 22C9.11457 22 9.69013 21.7568 10.164 21.2708C10.6378 20.7848 10.8748 20.1945 10.8748 19.5002C10.8748 19.049 10.7648 18.6301 10.5449 18.2436C10.3248 17.8575 10.0286 17.5555 9.65621 17.3387V17.0001C9.65621 16.4013 9.8318 15.9674 10.183 15.6983C10.5342 15.4289 11.2515 15.1209 12.3349 14.7738C13.4776 14.4004 14.3368 14.0486 14.9123 13.7187C16.808 12.6165 17.7644 10.8195 17.7813 8.32811C18.1539 8.11125 18.4499 7.80947 18.6699 7.42318C18.8898 7.03688 19 6.61808 19 6.1667C19.0001 5.47229 18.7631 4.88209 18.2892 4.39592ZM9.30097 20.3859C9.06388 20.6291 8.77614 20.7505 8.43771 20.7505C8.09906 20.7505 7.81132 20.6291 7.57431 20.3859C7.33744 20.1431 7.21885 19.8478 7.21885 19.5006C7.21885 19.1533 7.33731 18.8583 7.57431 18.6151C7.81132 18.3721 8.09906 18.2505 8.43771 18.2505C8.77614 18.2505 9.06392 18.3722 9.30097 18.6151C9.53797 18.8583 9.65638 19.1533 9.65638 19.5006C9.65634 19.8478 9.53797 20.143 9.30097 20.3859ZM9.30097 5.3855C9.06388 5.62859 8.77614 5.75008 8.43771 5.75008C8.09906 5.75008 7.81132 5.62859 7.57431 5.3855C7.33744 5.14242 7.21885 4.84743 7.21885 4.50009C7.21885 4.15283 7.33731 3.85762 7.57431 3.61476C7.81132 3.37172 8.09906 3.25018 8.43771 3.25018C8.77614 3.25018 9.06392 3.37177 9.30097 3.61476C9.53797 3.85762 9.65638 4.15283 9.65638 4.50009C9.65634 4.84743 9.53797 5.14255 9.30097 5.3855ZM17.4258 7.0523C17.1889 7.29525 16.9013 7.41684 16.5627 7.41684C16.224 7.41684 15.9362 7.29525 15.6995 7.0523C15.4626 6.80935 15.344 6.51418 15.344 6.16689C15.344 5.81963 15.4626 5.5246 15.6995 5.28147C15.9364 5.03834 16.224 4.91693 16.5627 4.91693C16.9013 4.91693 17.1889 5.03839 17.4258 5.28147C17.6627 5.52437 17.7813 5.81959 17.7813 6.16689C17.7813 6.51414 17.6629 6.80935 17.4258 7.0523Z" fill="#A3AED0"/>
</g>
<defs>
<clipPath id="clip0_2_110">
<rect width="24" height="24" fill="white"/>
</clipPath>
</defs>
</svg>
