<svg width="24" height="24" viewBox="0 0 24 24" fill="none" xmlns="http://www.w3.org/2000/svg">
<g clip-path="url(#clip0_1_965)">
<path d="M0.766264 9.61997L14.38 23.2337C14.5787 23.4324 14.4828 23.7699 14.2065 23.8215C13.7411 23.9084 13.2709 23.9678 12.7984 23.9993C12.748 24.0024 12.6975 23.9948 12.6503 23.9769C12.6031 23.9589 12.5603 23.9311 12.5247 23.8953L0.104671 11.4753C0.0688351 11.4397 0.0410197 11.3969 0.0230885 11.3496C0.00515733 11.3024 -0.00247531 11.2519 0.000702078 11.2015C0.0325771 10.7239 0.0923896 10.254 0.178452 9.79341C0.230015 9.51713 0.567515 9.42122 0.766264 9.61997ZM0.38264 15.1321C0.291702 14.7933 0.692015 14.5795 0.940077 14.8276L9.17226 23.0599C9.42042 23.3079 9.20667 23.7082 8.86786 23.6173C4.74005 22.5106 1.48945 19.26 0.38264 15.1321ZM1.5757 6.01538C1.6913 5.81522 1.96448 5.78447 2.12789 5.94797L18.0521 21.8719C18.2156 22.0354 18.1849 22.3086 17.9846 22.4242C17.6466 22.6193 17.2993 22.7978 16.9439 22.959C16.8099 23.0199 16.6524 22.9892 16.5483 22.8849L1.11492 7.45191C1.01076 7.34766 0.980014 7.19034 1.04086 7.05619C1.2021 6.7008 1.38063 6.35351 1.5758 6.01556M11.9868 0C18.6215 0 24 5.37844 24 12.0131C24 15.5353 22.4842 18.7033 20.0694 20.9006C19.93 21.0276 19.7161 21.0191 19.5828 20.8859L3.11405 4.41713C2.98083 4.28381 2.97248 4.06997 3.09923 3.93056C5.29664 1.51575 8.46473 0 11.9868 0Z" fill="#0041C4"/>
</g>
<defs>
<clipPath id="clip0_1_965">
<rect width="24" height="24" fill="white"/>
</clipPath>
</defs>
</svg>
