<svg width="24" height="24" viewBox="0 0 24 24" fill="none" xmlns="http://www.w3.org/2000/svg">
<g id="logos:linear-icon" clip-path="url(#clip0_1_648)">
<path id="Vector" d="M0.766314 9.61997L14.38 23.2337C14.5788 23.4324 14.4829 23.7699 14.2066 23.8215C13.7411 23.9084 13.2709 23.9678 12.7985 23.9993C12.7481 24.0024 12.6976 23.9948 12.6504 23.9769C12.6031 23.9589 12.5603 23.9311 12.5247 23.8953L0.10472 11.4753C0.0688847 11.4397 0.0410693 11.3969 0.0231381 11.3496C0.00520693 11.3024 -0.00242572 11.2519 0.000751669 11.2015C0.0326267 10.7239 0.0924392 10.254 0.178502 9.79341C0.230064 9.51713 0.567564 9.42122 0.766314 9.61997ZM0.382689 15.1321C0.291752 14.7933 0.692064 14.5795 0.940127 14.8276L9.17231 23.0599C9.42047 23.3079 9.20672 23.7082 8.86791 23.6173C4.7401 22.5106 1.4895 19.26 0.382689 15.1321ZM1.57575 6.01538C1.69135 5.81522 1.96453 5.78447 2.12794 5.94797L18.0521 21.8719C18.2156 22.0354 18.185 22.3086 17.9846 22.4242C17.6467 22.6193 17.2994 22.7978 16.944 22.959C16.8099 23.0199 16.6524 22.9892 16.5484 22.8849L1.11497 7.45191C1.01081 7.34766 0.980064 7.19034 1.04091 7.05619C1.20215 6.7008 1.38068 6.35351 1.57585 6.01556M11.9869 0C18.6216 0 24 5.37844 24 12.0131C24 15.5353 22.4842 18.7033 20.0694 20.9006C19.93 21.0276 19.7162 21.0191 19.5829 20.8859L3.11409 4.41713C2.98088 4.28381 2.97253 4.06997 3.09928 3.93056C5.29669 1.51575 8.46478 0 11.9869 0Z" fill="#979797"/>
</g>
<defs>
<clipPath id="clip0_1_648">
<rect width="24" height="24" fill="white"/>
</clipPath>
</defs>
</svg>
