<svg width="20" height="24" viewBox="0 0 20 24" fill="none" xmlns="http://www.w3.org/2000/svg">
<path d="M5.83334 9V7H17.5V9H5.83334ZM5.83334 13V11H17.5V13H5.83334ZM5.83334 17V15H17.5V17H5.83334ZM3.33334 9C3.09723 9 2.89945 8.904 2.74 8.712C2.58056 8.52 2.50056 8.28267 2.5 8C2.49945 7.71733 2.57945 7.48 2.74 7.288C2.90056 7.096 3.09834 7 3.33334 7C3.56834 7 3.76639 7.096 3.9275 7.288C4.08861 7.48 4.16834 7.71733 4.16667 8C4.165 8.28267 4.085 8.52033 3.92667 8.713C3.76834 8.90567 3.57056 9.00133 3.33334 9ZM3.33334 13C3.09723 13 2.89945 12.904 2.74 12.712C2.58056 12.52 2.50056 12.2827 2.5 12C2.49945 11.7173 2.57945 11.48 2.74 11.288C2.90056 11.096 3.09834 11 3.33334 11C3.56834 11 3.76639 11.096 3.9275 11.288C4.08861 11.48 4.16834 11.7173 4.16667 12C4.165 12.2827 4.085 12.5203 3.92667 12.713C3.76834 12.9057 3.57056 13.0013 3.33334 13ZM3.33334 17C3.09723 17 2.89945 16.904 2.74 16.712C2.58056 16.52 2.50056 16.2827 2.5 16C2.49945 15.7173 2.57945 15.48 2.74 15.288C2.90056 15.096 3.09834 15 3.33334 15C3.56834 15 3.76639 15.096 3.9275 15.288C4.08861 15.48 4.16834 15.7173 4.16667 16C4.165 16.2827 4.085 16.5203 3.92667 16.713C3.76834 16.9057 3.57056 17.0013 3.33334 17Z" fill="#A3AED0"/>
</svg>
